<svg xmlns="http://www.w3.org/2000/svg" width="190.25" height="155.422" viewBox="0 0 190.25 155.422" class="svg navbar-logo replaced-svg">
  <g id="Gruppe_2" data-name="Gruppe 2" transform="translate(-42.312 -20.959)">
    <path id="Pfad_1" data-name="Pfad 1" d="M70.671,20.959H108.7c15.043,1.943,27.227,7.743,28.359,23.289.884,12.135-.661,24.834,0,37.708-.466.314-.72-.509-.951-.793-4.709-5.83-12.354-8.444-20.279-10.933-.26-6.051.416-12.762-.16-18.535-.205-2.067-.006-4.117-.633-5.705-.817-2.064-3.381-3.918-6.021-4.753-4.68-1.48-11.945-.793-19.8-.793-8.534,0-17.743-.8-22.18,2.219C62.748,45.58,63.7,52.9,63.7,60.567V91.3c0,4.713-.748,11.4.473,14.895,1.884,5.4,10.517,6.078,18.379,5.7,10.192-.485,22.026,1.055,28.835-1.742v20.754c-6.794.769-14.005.475-21.072.475-7.406,0-14.78.436-21.389-.318-14.451-1.647-25.355-9.152-26.615-23.447V44.564C44.046,28.979,55.226,22.835,70.671,20.959Z" transform="translate(0 0)" fill="#fff" fill-rule="evenodd"></path>
    <path id="Pfad_20" data-name="Pfad 20" d="M195.8,153.882h-3.328c-9.5-1.856-19.4-6.285-29.152-9.347-2.247,3.405-5.475,6.631-9.663,7.921a49.87,49.87,0,0,1-6.5,1.426h-.791a2.03,2.03,0,0,0-1.744,0h-.793a18.511,18.511,0,0,1-3.961-.951c-.383-.134-.866-.049-1.267-.158-5.922-1.586-11.608-4.038-17.268-6.021-7.426-2.6-16.221-4.685-20.914-10.138-5.356-6.224-4.752-15.392-4.752-26.3V94.786c0-5.1.657-10.89-.318-15.368-1.375-6.311-7.195-7.757-13.309-9.982C76.3,67.35,70.238,65.885,64.615,63.417c-.3-1.357-1.612-2.395-1.584-3.8.018-.882.866-2.164,1.269-3.328,1.215-3.52,2.33-7.441,3.486-10.456,1.3-.5,2.44-1.15,3.644-1.744C79.368,46.606,86.7,49.3,94.561,52.01c7.5,2.582,15.664,4.914,19.485,11.567,3.78,6.573,2.926,17.97,3.011,27.724.043,4.906,0,10.265,0,15.528,0,5.054-.7,11.107,1.269,14.258,2.3,3.693,6.169,4.977,10.931,6.654,4.352,1.533,8.909,3.559,13.942,3.328,1.046-1.148.906-2.985.951-4.437.858-27.343-.645-55.383,0-82.387q10.86,3.72,21.547,7.607v52.282c0,5.222-.953,12.841.951,16.477,2.075,3.965,6.556,5.52,11.091,7.13,4.482,1.592,9.183,3.792,14.415,3.168,1.126-6.69.635-14.072.635-21.229V44.087c7.242,2.476,14.471,4.964,21.547,7.605V127.74c0,5.236.254,10.237-1.109,14.1C210.6,149.266,203.959,152.878,195.8,153.882Z" transform="translate(20.156 22.499)" fill="#94bb21" fill-rule="evenodd"></path>
</g>
</svg>